<svg width="1024" height="1024" viewBox="0 0 1024 1024" fill="none" xmlns="http://www.w3.org/2000/svg">
  <defs>
    <linearGradient id="even-yellow" x1="128" y1="64" x2="896" y2="960" gradientUnits="userSpaceOnUse">
      <stop stop-color="#FFFDBA"/>
      <stop offset="1" stop-color="#FEF36C"/>
    </linearGradient>
  </defs>
  <rect width="1024" height="1024" fill="url(#even-yellow)"/>
  <g fill="#232323" transform="translate(128 128) scale(24)">
    <path d="M11.999 22.002H3.99902V20.002H11.999V22.002ZM28.001 22.002H20.001V20.002H28.001V22.002ZM18 14.002H18.001V16.002H14.002V20H12.002V16H14.001V11.999H18V14.002ZM20.002 20H18.002V16H20.002V20ZM13.999 12H4V19.999H2V11.999H3.99902V10H13.999V12ZM28.002 11.999H30V19.999H28V12H18.002V10H28.002V11.999Z"/>
  </g>
</svg>
